<?xml version="1.0" encoding="UTF-8" standalone="no" ?>
<!DOCTYPE svg PUBLIC "-//W3C//DTD SVG 1.1//EN" "http://www.w3.org/Graphics/SVG/1.1/DTD/svg11.dtd">
<svg xmlns="http://www.w3.org/2000/svg" xmlns:xlink="http://www.w3.org/1999/xlink" version="1.1" width="640" height="480" viewBox="0 0 640 480" xml:space="preserve">
<desc>Created with Fabric.js 3.6.6</desc>
<defs>
</defs>
<g transform="matrix(1 0 0 1 178 191)"  >
<g style=""   >
		<g transform="matrix(1 0 0 1 -47.17 3.83)"  >
<path style="stroke: none; stroke-width: 1; stroke-dasharray: none; stroke-linecap: butt; stroke-dashoffset: 0; stroke-linejoin: miter; stroke-miterlimit: 4; fill: rgb(163,230,53); fill-opacity: 0.5; fill-rule: nonzero; opacity: 1;"  transform=" translate(-25.83, -27.83)" d="M 13.2778 22.3182 C 14.1 19.2499 17.2539 16.096 20.3222 15.2737 L 39.4512 10.1474 C 42.5194 9.3251 44.3402 11.1459 43.5179 14.2141 L 38.3916 33.3431 C 37.5693 36.4114 34.4154 39.5653 31.3471 40.3875 L 12.2181 45.5139 C 9.14988 46.3362 7.32913 44.5154 8.15139 41.4471 L 13.2778 22.3182 Z" stroke-linecap="round" />
</g>
		<g transform="matrix(1 0 0 1 -54.83 -3.84)"  >
<path style="stroke: none; stroke-width: 1; stroke-dasharray: none; stroke-linecap: butt; stroke-dashoffset: 0; stroke-linejoin: miter; stroke-miterlimit: 4; fill: rgb(163,230,53); fill-rule: nonzero; opacity: 1;"  transform=" translate(-18.17, -20.16)" d="M 5.60882 14.6493 C 6.43108 11.5811 9.58498 8.42717 12.6533 7.60491 L 31.7822 2.47854 C 34.8505 1.65628 36.6713 3.47702 35.849 6.54529 L 30.7226 25.6743 C 29.9004 28.7425 26.7465 31.8964 23.6782 32.7187 L 4.5492 37.8451 C 1.48093 38.6673 -0.339816 36.8466 0.482448 33.7783 L 5.60882 14.6493 Z" stroke-linecap="round" />
</g>
		<g transform="matrix(1 0 0 1 -10.73 0.08)"  >
<path style="stroke: none; stroke-width: 1; stroke-dasharray: none; stroke-linecap: butt; stroke-dashoffset: 0; stroke-linejoin: miter; stroke-miterlimit: 4; fill: rgb(255,255,255); fill-rule: nonzero; opacity: 1;"  transform=" translate(-62.27, -24.08)" d="M 61.5243 30.2132 H 67.7963 V 33.9092 H 56.7363 V 14.2532 H 61.5243 V 30.2132 Z" stroke-linecap="round" />
</g>
		<g transform="matrix(1 0 0 1 3.81 2.1)"  >
<path style="stroke: none; stroke-width: 1; stroke-dasharray: none; stroke-linecap: butt; stroke-dashoffset: 0; stroke-linejoin: miter; stroke-miterlimit: 4; fill: rgb(255,255,255); fill-rule: nonzero; opacity: 1;"  transform=" translate(-76.81, -26.1)" d="M 68.5681 26.0692 C 68.5681 24.4638 68.8667 23.0545 69.4641 21.8412 C 70.0801 20.6278 70.9107 19.6945 71.9561 19.0412 C 73.0014 18.3878 74.1681 18.0612 75.4561 18.0612 C 76.5574 18.0612 77.5187 18.2852 78.3401 18.7332 C 79.1801 19.1812 79.8241 19.7692 80.2721 20.4972 V 18.2852 H 85.0601 V 33.9092 H 80.2721 V 31.6972 C 79.8054 32.4252 79.1521 33.0132 78.3121 33.4612 C 77.4907 33.9092 76.5294 34.1332 75.4281 34.1332 C 74.1587 34.1332 73.0014 33.8065 71.9561 33.1532 C 70.9107 32.4812 70.0801 31.5385 69.4641 30.3252 C 68.8667 29.0932 68.5681 27.6745 68.5681 26.0692 Z M 80.2721 26.0972 C 80.2721 24.9025 79.9361 23.9598 79.2641 23.2692 C 78.6107 22.5785 77.8081 22.2332 76.8561 22.2332 C 75.9041 22.2332 75.0921 22.5785 74.4201 23.2692 C 73.7667 23.9412 73.4401 24.8745 73.4401 26.0692 C 73.4401 27.2638 73.7667 28.2158 74.4201 28.9252 C 75.0921 29.6158 75.9041 29.9612 76.8561 29.9612 C 77.8081 29.9612 78.6107 29.6158 79.2641 28.9252 C 79.9361 28.2345 80.2721 27.2918 80.2721 26.0972 Z" stroke-linecap="round" />
</g>
		<g transform="matrix(1 0 0 1 22.06 5.81)"  >
<path style="stroke: none; stroke-width: 1; stroke-dasharray: none; stroke-linecap: butt; stroke-dashoffset: 0; stroke-linejoin: miter; stroke-miterlimit: 4; fill: rgb(255,255,255); fill-rule: nonzero; opacity: 1;"  transform=" translate(-95.06, -29.81)" d="M 103.924 18.2852 L 94.124 41.3292 H 88.972 L 92.556 33.3772 L 86.2 18.2852 H 91.548 L 95.16 28.0572 L 98.744 18.2852 H 103.924 Z" stroke-linecap="round" />
</g>
		<g transform="matrix(1 0 0 1 38.98 2.1)"  >
<path style="stroke: none; stroke-width: 1; stroke-dasharray: none; stroke-linecap: butt; stroke-dashoffset: 0; stroke-linejoin: miter; stroke-miterlimit: 4; fill: rgb(255,255,255); fill-rule: nonzero; opacity: 1;"  transform=" translate(-111.98, -26.1)" d="M 119.823 25.8452 C 119.823 26.2932 119.795 26.7598 119.739 27.2452 H 108.903 C 108.978 28.2158 109.286 28.9625 109.827 29.4852 C 110.387 29.9892 111.069 30.2412 111.871 30.2412 C 113.066 30.2412 113.897 29.7372 114.363 28.7292 H 119.459 C 119.198 29.7558 118.722 30.6798 118.031 31.5012 C 117.359 32.3225 116.51 32.9665 115.483 33.4332 C 114.457 33.8998 113.309 34.1332 112.039 34.1332 C 110.509 34.1332 109.146 33.8065 107.951 33.1532 C 106.757 32.4998 105.823 31.5665 105.151 30.3532 C 104.479 29.1398 104.143 27.7212 104.143 26.0972 C 104.143 24.4732 104.47 23.0545 105.123 21.8412 C 105.795 20.6278 106.729 19.6945 107.923 19.0412 C 109.118 18.3878 110.49 18.0612 112.039 18.0612 C 113.551 18.0612 114.895 18.3785 116.071 19.0132 C 117.247 19.6478 118.162 20.5532 118.815 21.7292 C 119.487 22.9052 119.823 24.2772 119.823 25.8452 Z M 114.923 24.5852 C 114.923 23.7638 114.643 23.1105 114.083 22.6252 C 113.523 22.1398 112.823 21.8972 111.983 21.8972 C 111.181 21.8972 110.499 22.1305 109.939 22.5972 C 109.398 23.0638 109.062 23.7265 108.931 24.5852 H 114.923 Z" stroke-linecap="round" />
</g>
		<g transform="matrix(1 0 0 1 53.63 2.01)"  >
<path style="stroke: none; stroke-width: 1; stroke-dasharray: none; stroke-linecap: butt; stroke-dashoffset: 0; stroke-linejoin: miter; stroke-miterlimit: 4; fill: rgb(255,255,255); fill-rule: nonzero; opacity: 1;"  transform=" translate(-126.63, -26.01)" d="M 126.577 20.8892 C 127.137 20.0305 127.837 19.3585 128.677 18.8732 C 129.517 18.3692 130.451 18.1172 131.477 18.1172 V 23.1852 H 130.161 C 128.967 23.1852 128.071 23.4465 127.473 23.9692 C 126.876 24.4732 126.577 25.3692 126.577 26.6572 V 33.9092 H 121.789 V 18.2852 H 126.577 V 20.8892 Z" stroke-linecap="round" />
</g>
		<g transform="matrix(1 0 0 1 66.13 2.1)"  >
<path style="stroke: none; stroke-width: 1; stroke-dasharray: none; stroke-linecap: butt; stroke-dashoffset: 0; stroke-linejoin: miter; stroke-miterlimit: 4; fill: rgb(255,255,255); fill-rule: nonzero; opacity: 1;"  transform=" translate(-139.13, -26.1)" d="M 139.562 34.1332 C 138.199 34.1332 136.986 33.8998 135.922 33.4332 C 134.858 32.9665 134.018 32.3318 133.402 31.5292 C 132.786 30.7078 132.441 29.7932 132.366 28.7852 H 137.098 C 137.154 29.3265 137.406 29.7652 137.854 30.1012 C 138.302 30.4372 138.853 30.6052 139.506 30.6052 C 140.103 30.6052 140.561 30.4932 140.878 30.2692 C 141.214 30.0265 141.382 29.7185 141.382 29.3452 C 141.382 28.8972 141.149 28.5705 140.682 28.3652 C 140.215 28.1412 139.459 27.8985 138.414 27.6372 C 137.294 27.3758 136.361 27.1052 135.614 26.8252 C 134.867 26.5265 134.223 26.0692 133.682 25.4532 C 133.141 24.8185 132.87 23.9692 132.87 22.9052 C 132.87 22.0092 133.113 21.1972 133.598 20.4692 C 134.102 19.7225 134.83 19.1345 135.782 18.7052 C 136.753 18.2758 137.901 18.0612 139.226 18.0612 C 141.186 18.0612 142.726 18.5465 143.846 19.5172 C 144.985 20.4878 145.638 21.7758 145.806 23.3812 H 141.382 C 141.307 22.8398 141.065 22.4105 140.654 22.0932 C 140.262 21.7758 139.739 21.6172 139.086 21.6172 C 138.526 21.6172 138.097 21.7292 137.798 21.9532 C 137.499 22.1585 137.35 22.4478 137.35 22.8212 C 137.35 23.2692 137.583 23.6052 138.05 23.8292 C 138.535 24.0532 139.282 24.2772 140.29 24.5012 C 141.447 24.7998 142.39 25.0985 143.118 25.3972 C 143.846 25.6772 144.481 26.1438 145.022 26.7972 C 145.582 27.4318 145.871 28.2905 145.89 29.3732 C 145.89 30.2878 145.629 31.1092 145.106 31.8372 C 144.602 32.5465 143.865 33.1065 142.894 33.5172 C 141.942 33.9278 140.831 34.1332 139.562 34.1332 Z" stroke-linecap="round" />
</g>
</g>
</g>
<g transform="matrix(1.65 0 0 1.65 319.28 190.82)" style=""  >
		<text xml:space="preserve" font-family="'Open Sans', sans-serif" font-size="18" font-style="normal" font-weight="normal" style="stroke: none; stroke-width: 1; stroke-dasharray: none; stroke-linecap: butt; stroke-dashoffset: 0; stroke-linejoin: miter; stroke-miterlimit: 4; fill: rgb(255,254,254); fill-rule: nonzero; opacity: 1; white-space: pre;" ><tspan x="-40" y="5.65" style="font-family: 'Indie Flower', cursive; font-weight: bold; ">One</tspan></text>
</g>
</svg>